<svg xmlns="http://www.w3.org/2000/svg" width="91.3mm" height="15.28mm" viewBox="0 0 258.79 43.3"><defs><style>.cls-1{fill:#231815;}.cls-2{fill:#abcd03;}</style></defs><g id="レイヤー_2" data-name="レイヤー 2"><g id="レイヤー_1-2" data-name="レイヤー 1"><path class="cls-1" d="M19.44,27.83l0,1.76a12.76,12.76,0,0,1-4.15,3.13,11.88,11.88,0,0,1-4.82.89A9.78,9.78,0,0,1,5,32a10.2,10.2,0,0,1-3.73-4.46A13.7,13.7,0,0,1,0,21.92a11.28,11.28,0,0,1,1.58-5.76,10.14,10.14,0,0,1,4.18-4,14.23,14.23,0,0,1,6.54-1.33A10.43,10.43,0,0,1,18,12.08,2.26,2.26,0,0,1,19.15,14a1.93,1.93,0,0,1-.57,1.43,2,2,0,0,1-1.46.57,4.45,4.45,0,0,1-3-1.68,6.93,6.93,0,0,0-1.81-1.41,4.11,4.11,0,0,0-1.81-.39,4.9,4.9,0,0,0-4,2,11,11,0,0,0-2.21,7,10.17,10.17,0,0,0,2.27,7,6.82,6.82,0,0,0,5.28,2.59,9.47,9.47,0,0,0,3.73-.69A15.51,15.51,0,0,0,19.44,27.83Z"/><path class="cls-1" d="M23.11,32.87,23,32.51a1.18,1.18,0,0,1,.25-.56l1.58-.33,2.24-.4a.76.76,0,0,0,.37-.38,7.14,7.14,0,0,0,.16-2.07c0-6.1,0-9.63-.11-10.57A3.12,3.12,0,0,0,27,16.41a3.87,3.87,0,0,0-1.94-.59,6.25,6.25,0,0,1-1.46-.35l.1-.82a15.2,15.2,0,0,0,3.81-2,10,10,0,0,0,2.3-3.19l.93,0c.1.9.16,2.89.16,6l0,.46a3.6,3.6,0,0,0,.06.51A15.6,15.6,0,0,1,33.49,13l.62-.62a4,4,0,0,1,.72-.67,6.39,6.39,0,0,1,2.79-1.14,2.56,2.56,0,0,1,1.94.8,2.74,2.74,0,0,1,.75,2,1.88,1.88,0,0,1-.54,1.43,2.36,2.36,0,0,1-1.66.67,6.23,6.23,0,0,1-1.7-.46,6.37,6.37,0,0,0-1.66-.46,1.68,1.68,0,0,0-1,.24,9,9,0,0,0-1.83,2.43A5,5,0,0,0,31,19.72l.14,4.47,0,5.35a4.25,4.25,0,0,0,.22,1.19,1.67,1.67,0,0,0,.54.46c1.94.16,3.1.27,3.46.35a4.76,4.76,0,0,1,.56.05,3.27,3.27,0,0,1,1.62.33.42.42,0,0,1,.25.4.83.83,0,0,1-.22.43l-3-.06-1.14,0-1.64,0H29.13l-1.49.09Z"/><path class="cls-1" d="M43.46,21.93A11.48,11.48,0,0,1,44.23,18a11,11,0,0,1,2.33-3.74,10.87,10.87,0,0,1,3.32-2.47,14.32,14.32,0,0,1,6-1.13,11.32,11.32,0,0,1,8.42,3.45,11.45,11.45,0,0,1,3.38,8.3,10.42,10.42,0,0,1-3.54,7.7,12.5,12.5,0,0,1-9,3.38,12.25,12.25,0,0,1-6.3-1.75,11.32,11.32,0,0,1-3.8-3.91A11.09,11.09,0,0,1,43.46,21.93Zm11.93,10.5a7.91,7.91,0,0,0,4-1.1,7.78,7.78,0,0,0,3-3.54,13.3,13.3,0,0,0,1.13-5.64,16.29,16.29,0,0,0-.88-4.87A8,8,0,0,0,60,13.12a6.93,6.93,0,0,0-4.29-1.39,8.72,8.72,0,0,0-3.63.84,6.9,6.9,0,0,0-3.14,3.2,14.29,14.29,0,0,0-1.28,6.73q0,4.91,2.23,7.42A7.13,7.13,0,0,0,55.39,32.43Z"/><path class="cls-1" d="M74.11,25.94a20,20,0,0,0,1.51,3.31,7.63,7.63,0,0,0,2.45,2.39,5.9,5.9,0,0,0,3.1.85,4.62,4.62,0,0,0,3-1.32,3.08,3.08,0,0,0,1.08-2.32A4.9,4.9,0,0,0,84,25.61a12.27,12.27,0,0,0-4.81-2.79A11.26,11.26,0,0,1,74.46,20a5.36,5.36,0,0,1-1.21-3.45,5.45,5.45,0,0,1,1-3.23A6.15,6.15,0,0,1,77,11.18a8.68,8.68,0,0,1,3.23-.71,17.91,17.91,0,0,1,3.44.3,8.75,8.75,0,0,1,2.63.91c.14.92.26,2.27.35,4.05l0,.86-.6,0h-.38a7.66,7.66,0,0,0-2.46-3.55A5.29,5.29,0,0,0,80,11.76a3.56,3.56,0,0,0-2.61,1,3.46,3.46,0,0,0-1,2.58,3.18,3.18,0,0,0,.81,2.15A10.72,10.72,0,0,0,81,19.61a19.6,19.6,0,0,1,4.34,2.24,6.29,6.29,0,0,1,2,2.53A7.1,7.1,0,0,1,88,27.21a5.67,5.67,0,0,1-1.23,3.49A6.57,6.57,0,0,1,83.67,33a10,10,0,0,1-3.3.66,15.56,15.56,0,0,1-6.31-1.26,1.05,1.05,0,0,1-.3-.81c0-.16,0-.42-.05-.78-.29-2.43-.43-3.86-.43-4.32a.55.55,0,0,1,.13-.43A1.4,1.4,0,0,1,74.11,25.94Z"/><path class="cls-1" d="M94.24,25.94a20.91,20.91,0,0,0,1.51,3.31,7.66,7.66,0,0,0,2.46,2.39,5.89,5.89,0,0,0,3.09.85,4.64,4.64,0,0,0,3-1.32,3.08,3.08,0,0,0,1.08-2.32,4.92,4.92,0,0,0-1.27-3.24,12.19,12.19,0,0,0-4.81-2.79A11.21,11.21,0,0,1,94.6,20a5.59,5.59,0,0,1-.22-6.68,6.07,6.07,0,0,1,2.75-2.12,8.72,8.72,0,0,1,3.23-.71,17.84,17.84,0,0,1,3.44.3,8.56,8.56,0,0,1,2.63.91,40.17,40.17,0,0,1,.35,4.05l.06.86-.6,0h-.38a7.68,7.68,0,0,0-2.47-3.55,5.29,5.29,0,0,0-3.27-1.31,3.58,3.58,0,0,0-2.61,1,3.5,3.5,0,0,0-1,2.58,3.18,3.18,0,0,0,.81,2.15,10.69,10.69,0,0,0,3.79,2.14,19.48,19.48,0,0,1,4.33,2.24,6.29,6.29,0,0,1,2,2.53,6.94,6.94,0,0,1,.65,2.83,5.67,5.67,0,0,1-1.23,3.49A6.52,6.52,0,0,1,103.8,33a9.94,9.94,0,0,1-3.3.66,15.59,15.59,0,0,1-6.31-1.26,1.05,1.05,0,0,1-.3-.81,7.23,7.23,0,0,0,0-.78c-.29-2.43-.43-3.86-.43-4.32a.55.55,0,0,1,.13-.43A1.43,1.43,0,0,1,94.24,25.94Z"/><path class="cls-1" d="M149.91,27.83l0,1.76a12.76,12.76,0,0,1-4.15,3.13,11.88,11.88,0,0,1-4.82.89A9.78,9.78,0,0,1,135.51,32a10.27,10.27,0,0,1-3.73-4.46,13.7,13.7,0,0,1-1.31-5.66,11.28,11.28,0,0,1,1.58-5.76,10.2,10.2,0,0,1,4.18-4,14.23,14.23,0,0,1,6.54-1.33,10.41,10.41,0,0,1,5.74,1.29A2.26,2.26,0,0,1,149.62,14a1.95,1.95,0,0,1-2,2,4.45,4.45,0,0,1-3-1.68,6.93,6.93,0,0,0-1.81-1.41,4.1,4.1,0,0,0-1.8-.39,4.89,4.89,0,0,0-4,2,11,11,0,0,0-2.22,7,10.17,10.17,0,0,0,2.27,7,6.82,6.82,0,0,0,5.28,2.59,9.47,9.47,0,0,0,3.73-.69A15.51,15.51,0,0,0,149.91,27.83Z"/><path class="cls-1" d="M153,32.12a17,17,0,0,0,3.63-.87c.2-.12.3-.41.3-.86l0-1.78,0-3.16-.06-8,0-3V12.3L157,9.68a22.64,22.64,0,0,0-.12-4.22A2.42,2.42,0,0,0,156.38,4a9.25,9.25,0,0,0-3.57-1.3V2.54a4.72,4.72,0,0,1,.05-.53c.25,0,.49-.08.73-.13a4.24,4.24,0,0,1,.67-.11A21.5,21.5,0,0,0,158.93,0h1.32c0,.5.06,2.1.06,4.78l0,3.42,0,1.3L160.2,15c0,.32,0,.68.05,1.08a25.32,25.32,0,0,1,2.49-2.62,12.47,12.47,0,0,1,3-1.79A8.71,8.71,0,0,1,169.1,11a6.51,6.51,0,0,1,5.43,2.8,7.69,7.69,0,0,1,1.21,4.65l-.08,2.75,0,1.53-.11,2.67c-.07,2.21-.11,3.52-.11,3.93s0,1.09.06,1.88l1.53.36a23.79,23.79,0,0,1,2.37.59l0,.83-5.73-.17c-.33,0-1.21,0-2.64.11l-1.54.06h-.59a.87.87,0,0,1-.14-.4v-.24a2.16,2.16,0,0,1,1.4-.64l1.61-.38a1,1,0,0,0,.38-.57q.1-.69.24-6.95l.05-2a17.2,17.2,0,0,0-.48-5.23,3.8,3.8,0,0,0-1.72-2.27,5.61,5.61,0,0,0-3.1-.85,6.32,6.32,0,0,0-2.75.62,10.08,10.08,0,0,0-2.14,1.59,9.77,9.77,0,0,0-1.73,1.93,3.68,3.68,0,0,0-.32,1.77l0,1.88-.05,2c0,.16,0,1.28.08,3.35l0,1.72.06,1.88a4.21,4.21,0,0,0,.08.59l3.81.91a7.34,7.34,0,0,1,.89.33l.08.31a1.21,1.21,0,0,1-.13.45l-1.19,0-2.1,0-4.63.06-3.48.11-.81,0,0-.19A1,1,0,0,1,153,32.12Z"/><path class="cls-1" d="M182,21.93A11.45,11.45,0,0,1,182.8,18a11,11,0,0,1,2.34-3.74,10.72,10.72,0,0,1,3.31-2.47,14.32,14.32,0,0,1,6-1.13,11.32,11.32,0,0,1,8.42,3.45,11.41,11.41,0,0,1,3.38,8.3,10.42,10.42,0,0,1-3.54,7.7,12.47,12.47,0,0,1-9,3.38,12.26,12.26,0,0,1-6.31-1.75,11.32,11.32,0,0,1-3.8-3.91A11.08,11.08,0,0,1,182,21.93ZM194,32.43a7.85,7.85,0,0,0,4-1.1,7.72,7.72,0,0,0,3-3.54,13.15,13.15,0,0,0,1.13-5.64,16.29,16.29,0,0,0-.88-4.87,8,8,0,0,0-2.7-4.16,6.93,6.93,0,0,0-4.29-1.39,8.72,8.72,0,0,0-3.63.84,6.9,6.9,0,0,0-3.14,3.2,14.29,14.29,0,0,0-1.28,6.73q0,4.91,2.23,7.42A7.14,7.14,0,0,0,194,32.43Z"/><path class="cls-1" d="M208.91,43.22c0-.21,0-.4,0-.56a3.26,3.26,0,0,1,.05-.48l2.71-.54a3.36,3.36,0,0,0,1.06-.78,3.6,3.6,0,0,0,.13-1c0-2.76-.07-4.38-.21-12.16l-.08-9.85a11.57,11.57,0,0,0-.3-3,1.16,1.16,0,0,0-.4-.52,7.17,7.17,0,0,0-2.7-.86l.16-.82a24,24,0,0,0,3.89-1.92,7.62,7.62,0,0,0,1.87-1.92l.33-.08a1.66,1.66,0,0,1,.54.16c0,1.13,0,1.87,0,2.23l0,3a14.87,14.87,0,0,1,4.14-2.25,13.8,13.8,0,0,1,4.48-.74,9.4,9.4,0,0,1,7,2.92,10.31,10.31,0,0,1,2.86,7.54,11.75,11.75,0,0,1-1.61,6.14,9.94,9.94,0,0,1-4.42,4.07,13,13,0,0,1-5.67,1.35,14.59,14.59,0,0,1-5.56-1.32l-.91-.38c0,1.44-.06,1.15-.06,2.27,0,5.55.16,6.58.46,7.25.16.36.67.57,1.52.64a6.78,6.78,0,0,1,2.86.63,1.35,1.35,0,0,1,.54,1l-2.67,0-2.43-.06-4,0ZM216,16a6.06,6.06,0,0,0-.05.7q0,9.63.19,10.78a4.6,4.6,0,0,0,1.5,3,8,8,0,0,0,5,1.38,7.72,7.72,0,0,0,5.69-2.33,8.26,8.26,0,0,0,2.32-6.05,9.91,9.91,0,0,0-2.46-7.09,9.25,9.25,0,0,0-9.58-2.06A7.92,7.92,0,0,0,216,16Z"/><path class="cls-2" d="M244.21,13.29a6.23,6.23,0,0,1-.12,5.12c-.45,1.17-1,1.77-1.28,1.66-.88-.16.95-3.6-.19-6.05s-5-3.24-4.5-4c.12-.33.9-.31,2.09.08A6.23,6.23,0,0,1,244.21,13.29Z"/><path class="cls-2" d="M250.41,15.55a6.19,6.19,0,0,1,5.12.12c1.17.45,1.77,1,1.65,1.27-.15.89-3.59-1-6,.19s-3.24,4.95-4,4.5c-.33-.12-.31-.9.08-2.08A6.23,6.23,0,0,1,250.41,15.55Z"/><path class="cls-2" d="M252.67,9.34a6.17,6.17,0,0,1,.12-5.11c.45-1.18.94-1.78,1.27-1.66.88.16-.95,3.59.19,6s4.95,3.24,4.5,4c-.11.33-.9.32-2.08-.08A6.2,6.2,0,0,1,252.67,9.34Z"/><path class="cls-2" d="M246.46,7.09A6.16,6.16,0,0,1,241.35,7c-1.17-.45-1.78-1-1.66-1.27.16-.89,3.59.94,6-.2s3.24-4.95,4-4.5c.32.12.31.9-.09,2.09A6.17,6.17,0,0,1,246.46,7.09Z"/></g></g></svg>